<svg width="24" height="24" viewBox="0 0 24 24" fill="none" xmlns="http://www.w3.org/2000/svg">
<mask id="mask0_1_82" style="mask-type:alpha" maskUnits="userSpaceOnUse" x="0" y="0" width="24" height="24">
<rect width="24" height="24" fill="#D9D9D9"/>
</mask>
<g mask="url(#mask0_1_82)">
<path d="M4.37501 21L2.97501 19.6L13.225 9.35C12.925 8.65 12.8833 7.85833 13.1 6.975C13.3167 6.09167 13.7917 5.3 14.525 4.6C15.4083 3.71667 16.3917 3.2 17.475 3.05C18.5583 2.9 19.4417 3.16667 20.125 3.85C20.8083 4.53333 21.075 5.41667 20.925 6.5C20.775 7.58333 20.2583 8.56667 19.375 9.45C18.675 10.1833 17.8833 10.6583 17 10.875C16.1167 11.0917 15.325 11.05 14.625 10.75L13.375 12L20.975 19.6L19.575 21L11.975 13.45L4.37501 21ZM7.32501 12.45L4.32501 9.45C3.42501 8.55 2.97501 7.475 2.97501 6.225C2.97501 4.975 3.42501 3.9 4.32501 3L10.525 9.25L7.32501 12.45Z" fill="#1F1B1B"/>
</g>
</svg>
