<svg width="157" height="36" viewBox="0 0 157 36" fill="none" xmlns="http://www.w3.org/2000/svg">
<path fill-rule="evenodd" clip-rule="evenodd" d="M29.3424 15.3512V25.0956C29.3424 25.869 29.1079 26.449 28.6391 26.8357C28.1312 27.261 27.5451 27.4543 26.92 27.4543C26.2167 27.4543 25.6697 27.261 25.2399 26.8357C24.7711 26.449 24.5366 25.869 24.5366 25.0956V2.39742C24.5366 1.66273 24.7711 1.08271 25.2399 0.618691C25.6697 0.232008 26.2167 0 26.92 0C27.5451 0 28.1312 0.232008 28.6391 0.618691C29.1079 1.08271 29.3424 1.66273 29.3424 2.39742V11.4458H32.8978C33.4839 11.4458 33.9528 11.6391 34.3435 12.0258C34.6951 12.4511 34.8905 12.9151 34.8905 13.4178C34.8905 13.9979 34.6951 14.4619 34.3435 14.8099C33.9528 15.1966 33.4839 15.3512 32.8978 15.3512H29.3424ZM2.57869 17.4393C2.57869 15.5059 3.28197 13.9592 4.7276 12.7991C6.13416 11.6391 8.16585 11.0591 10.8227 11.0591C13.4795 11.0591 15.5503 11.6391 16.9959 12.7991C18.4025 13.9592 19.1058 15.5059 19.1058 17.4393C19.1058 19.3727 18.4025 20.9194 16.9959 22.0795C15.5503 23.2395 13.4795 23.8195 10.8227 23.8195C8.16585 23.8195 6.13416 23.2395 4.7276 22.0795C3.28197 20.9194 2.57869 19.3727 2.57869 17.4393ZM14.3391 17.4393C14.3391 17.13 14.3 16.8206 14.2219 16.5113C14.1047 16.2019 13.9093 15.9313 13.6749 15.6992C13.4014 15.4672 13.0497 15.2739 12.62 15.1192C12.1511 14.9646 11.526 14.8872 10.8227 14.8872C10.1194 14.8872 9.57241 14.9646 9.14263 15.1192C8.67378 15.2739 8.28307 15.4672 8.04864 15.6992C7.77514 15.9313 7.57979 16.2019 7.50165 16.4726C7.38443 16.782 7.34536 17.0913 7.34536 17.4006C7.34536 17.71 7.38443 18.0193 7.50165 18.3287C7.57979 18.638 7.77514 18.9087 8.04864 19.1407C8.28307 19.4114 8.67378 19.6047 9.14263 19.7594C9.57241 19.9141 10.1194 19.9914 10.8227 19.9914C11.526 19.9914 12.1511 19.9141 12.62 19.7594C13.0497 19.6047 13.4014 19.4114 13.6749 19.1794C13.9093 18.9474 14.1047 18.6767 14.2219 18.3673C14.3 18.058 14.3391 17.7487 14.3391 17.4393ZM5.89973 25.5209C5.39181 25.9463 5.15738 26.5263 5.15738 27.261V32.0559C5.15738 33.1386 5.43088 33.9506 6.01694 34.5693C6.56394 35.1493 7.46257 35.4586 8.71285 35.4586H27.9358C28.5219 35.4586 28.9907 35.2653 29.3814 34.8786C29.7331 34.4919 29.9284 34.0279 29.9284 33.5252C29.9284 32.9452 29.7331 32.4812 29.3814 32.1332C28.9907 31.7465 28.5219 31.5532 27.9358 31.5532H11.4088C10.8618 31.5532 10.5101 31.4372 10.3148 31.2052C10.0803 30.9731 10.0022 30.5865 10.0022 30.0451V27.261C10.0022 26.5263 9.76777 25.9463 9.29891 25.5209C8.83006 25.1343 8.244 24.9023 7.57979 24.9023C6.91558 24.9023 6.36858 25.1343 5.89973 25.5209ZM2.07077 9.89903C1.40656 9.89903 0.898635 9.74436 0.546995 9.39635C0.156284 9.087 0 8.62298 0 8.04296C0 7.50161 0.156284 7.0376 0.546995 6.65091C0.898635 6.26423 1.40656 6.07089 2.07077 6.07089H19.6527C20.2779 6.07089 20.7467 6.26423 21.1374 6.65091C21.4891 7.0376 21.6844 7.50161 21.6844 8.04296C21.6844 8.62298 21.4891 9.087 21.1374 9.39635C20.7467 9.74436 20.2779 9.89903 19.6527 9.89903H2.07077ZM5.04017 4.02148C5.39181 4.3695 5.89973 4.52417 6.56394 4.52417H15.1596C15.7847 4.52417 16.2536 4.3695 16.6443 4.02148C16.9959 3.71214 17.1913 3.24812 17.1913 2.6681C17.1913 2.12675 16.9959 1.66273 16.6443 1.27605C16.2536 0.889366 15.7847 0.696026 15.1596 0.696026H6.56394C5.89973 0.696026 5.39181 0.889366 5.04017 1.27605C4.64946 1.66273 4.49317 2.12675 4.49317 2.6681C4.49317 3.24812 4.64946 3.71214 5.04017 4.02148ZM64.7836 33.4866C64.7836 34.2213 64.5492 34.8013 64.0803 35.2266C63.5724 35.6133 62.9863 35.8453 62.3612 35.8453C61.6579 35.8453 61.1109 35.6133 60.6811 35.2266C60.2123 34.8013 59.9779 34.2213 59.9779 33.4866V2.39742C59.9779 1.66273 60.2123 1.08271 60.6811 0.618691C61.1109 0.232008 61.6579 0 62.3612 0C62.9863 0 63.5724 0.232008 64.0803 0.618691C64.5492 1.08271 64.7836 1.66273 64.7836 2.39742V33.4866ZM50.718 8.35231V9.39635C50.6008 10.7884 50.4054 12.1418 50.1319 13.5338C49.8194 14.9646 49.3896 16.3566 48.8817 17.7487C48.3347 19.1407 47.7095 20.4941 47.0063 21.8088C46.2248 23.1622 45.3653 24.4382 44.4276 25.6369C44.2713 25.7916 44.1151 26.0236 43.9588 26.2555C43.7634 26.5649 43.6462 26.8357 43.568 27.145C43.4899 27.4543 43.4899 27.8024 43.568 28.1117C43.6462 28.4984 43.8806 28.8077 44.2713 29.1171C44.7011 29.5038 45.1309 29.6584 45.5606 29.6584C45.9513 29.6584 46.3421 29.5811 46.6937 29.4264C47.0063 29.2718 47.3188 29.0784 47.5923 28.8077C47.7211 28.6803 47.8381 28.5528 47.9434 28.4381L47.9434 28.4381L47.9434 28.4381L47.9435 28.438L47.9437 28.4377L47.9438 28.4377L47.944 28.4375C48.03 28.3437 48.1081 28.2586 48.1784 28.189C49.2333 26.8743 50.2101 25.4436 51.0696 23.9356C51.9292 22.4662 52.6716 20.9194 53.2967 19.2567C53.8828 17.6327 54.3907 15.8539 54.7814 13.9592C55.1721 12.1031 55.4065 10.0924 55.5628 7.92696C55.6019 7.23094 55.6019 6.57358 55.5628 5.99356C55.4847 5.4522 55.3284 5.02685 55.094 4.64017C54.7814 4.33083 54.3907 4.06015 53.8828 3.86681C53.3358 3.71214 52.5934 3.59613 51.6557 3.59613H47.8658C47.2407 3.59613 46.7718 3.78947 46.4202 4.17615C46.0295 4.6015 45.8732 5.06552 45.8732 5.56821C45.8732 6.14823 46.0295 6.61224 46.4202 6.96026C46.7718 7.34694 47.2407 7.50161 47.8658 7.50161H49.3896C49.5378 7.50161 49.6746 7.51297 49.7998 7.52337C49.9057 7.53217 50.0034 7.54028 50.0929 7.54028C50.2492 7.57895 50.4054 7.65628 50.5227 7.77229C50.6008 7.92696 50.6789 8.1203 50.718 8.35231ZM44.9746 7.96563C44.7011 11.5618 43.9978 14.8486 42.8647 17.826C41.6926 20.8421 40.0125 23.6262 37.8636 26.1783C37.8143 26.2271 37.7649 26.2798 37.7132 26.3351L37.7127 26.3356L37.7126 26.3357C37.6005 26.4554 37.4768 26.5875 37.3166 26.7197C37.0822 26.9517 36.8087 27.145 36.4961 27.261C36.1445 27.4157 35.7929 27.493 35.4022 27.4157C34.9724 27.4157 34.5426 27.2223 34.0737 26.8357C33.683 26.5263 33.4877 26.217 33.4095 25.869C33.3314 25.5596 33.3314 25.2503 33.4095 24.9409C33.4877 24.6702 33.6049 24.3996 33.7612 24.1289C33.9174 23.8969 34.0347 23.7422 34.1909 23.5875C35.9882 21.4995 37.3557 19.218 38.3325 16.7433C39.2702 14.3072 39.8563 11.8324 40.0907 9.35768C40.0907 9.12128 40.1028 8.90878 40.1135 8.72016V8.72008V8.72001V8.71995V8.7199V8.71986V8.71982V8.71979L40.1135 8.71966C40.1221 8.56909 40.1298 8.43375 40.1298 8.31364C40.0907 8.08163 40.0125 7.92696 39.9344 7.77229C39.8172 7.65628 39.6609 7.57895 39.5046 7.54028C39.4151 7.54028 39.3175 7.53217 39.2116 7.52337L39.2115 7.52337C39.0863 7.51297 38.9495 7.50161 38.8013 7.50161H36.5743C35.9491 7.50161 35.4803 7.34694 35.1287 6.96026C34.7379 6.61224 34.5817 6.14823 34.5817 5.56821C34.5817 5.06552 34.7379 4.6015 35.1287 4.17615C35.4803 3.78947 35.9491 3.59613 36.5743 3.59613H41.0675C42.0052 3.59613 42.7475 3.71214 43.2945 3.86681C43.8024 4.06015 44.1931 4.33083 44.5057 4.67884C44.7401 5.06552 44.8964 5.49087 44.9746 6.03222C45.0136 6.57358 45.0136 7.23094 44.9746 7.96563ZM96.474 33.6412C96.474 34.3759 96.2396 34.956 95.7707 35.3813C95.2628 35.768 94.6767 36 94.0516 36C93.3483 36 92.8013 35.768 92.3715 35.3813C91.9027 34.956 91.6683 34.3759 91.6683 33.6412V28.4211C91.6683 27.8797 91.551 27.493 91.3557 27.261C91.1213 27.029 90.7696 26.913 90.2617 26.913H73.1486C72.5234 26.913 72.0546 26.7583 71.7029 26.3716C71.3122 26.0236 71.1559 25.5596 71.1559 24.9796C71.1559 24.4769 71.3122 24.0129 71.7029 23.6262C72.0546 23.2395 72.5234 23.0462 73.1486 23.0462H92.9185C94.1688 23.0462 95.0674 23.3555 95.6535 23.9356C96.2005 24.5542 96.474 25.3663 96.474 26.449V33.6412ZM87.5267 5.52954C86.9407 4.71751 86.589 3.82814 86.4718 2.82277C86.3155 2.01074 86.042 1.39205 85.6513 1.00537C85.1825 0.618691 84.6355 0.425348 83.9713 0.425348C83.268 0.425348 82.721 0.657358 82.2912 1.04404C81.8223 1.46939 81.5488 2.04941 81.4707 2.7841C81.3144 3.78947 81.0019 4.67884 80.4549 5.49087C79.9079 6.34157 79.1655 7.07626 78.306 7.73362C77.4073 8.42964 76.3915 9.04834 75.2584 9.51235C74.0863 10.0537 72.8751 10.4791 71.6248 10.7884C71.5361 10.8323 71.4348 10.8637 71.328 10.8969L71.328 10.8969C71.2467 10.9221 71.1622 10.9483 71.0778 10.9817C70.8434 11.0977 70.6089 11.2524 70.4527 11.4071C70.2573 11.6004 70.1401 11.8324 70.062 12.0644C69.9447 12.3738 69.9447 12.6831 70.062 13.0312C70.1792 13.5338 70.3745 13.8818 70.6871 14.0752C70.9606 14.3072 71.2731 14.4232 71.5857 14.4619C71.8983 14.5392 72.1718 14.5392 72.4844 14.4619C72.7188 14.4619 72.9532 14.4232 73.1095 14.3459C75.4538 13.8045 77.5636 12.9151 79.5172 11.7164C81.3926 10.5564 82.8773 9.20301 83.9713 7.73362C85.0262 9.20301 86.5109 10.5177 88.4254 11.6778C90.3008 12.8765 92.4106 13.7658 94.7549 14.3459C94.9111 14.4232 95.1456 14.4619 95.4581 14.4619C95.7316 14.5005 96.0442 14.5005 96.3568 14.4232C96.6693 14.3845 96.9429 14.2685 97.2554 14.0365C97.5289 13.8818 97.7243 13.5725 97.8806 13.1085C97.9587 12.7605 97.9978 12.4511 97.9196 12.1418C97.8026 11.9101 97.6465 11.6785 97.4905 11.4468L97.4904 11.4467L97.4904 11.4466L97.4903 11.4465L97.4902 11.4465L97.4902 11.4464L97.4901 11.4463L97.4898 11.4457C97.2944 11.2911 97.0991 11.1364 96.8647 11.0204C96.6303 10.9431 96.4349 10.8657 96.2786 10.7884C94.9893 10.4791 93.7781 10.0537 92.6841 9.51235C91.512 9.04834 90.5352 8.46832 89.6756 7.77229C88.777 7.11493 88.0737 6.38024 87.5267 5.52954ZM129.884 35.3813C130.352 34.956 130.587 34.3759 130.587 33.6412V25.985C130.587 24.9023 130.313 24.0902 129.766 23.4715C129.18 22.8915 128.282 22.5822 127.031 22.5822H106.402C105.777 22.5822 105.308 22.7755 104.956 23.1622C104.565 23.5489 104.409 24.0129 104.409 24.5156C104.409 25.0956 104.565 25.5596 104.956 25.9076C105.308 26.2943 105.777 26.449 106.402 26.449H124.374C124.882 26.449 125.234 26.565 125.468 26.797C125.664 27.029 125.781 27.4157 125.781 27.957V33.6412C125.781 34.3759 126.015 34.956 126.484 35.3813C126.914 35.768 127.461 36 128.164 36C128.79 36 129.376 35.768 129.884 35.3813ZM119.53 4.42099C119.53 8.51981 120.741 11.5746 123.241 13.5853C123.359 13.7013 123.515 13.856 123.749 14.0107C123.894 14.1829 123.764 14.436 123.538 14.436H119.003C118.758 14.436 118.525 14.3277 118.377 14.1327C118.028 13.6722 117.709 13.1675 117.42 12.6186C117.228 13.0939 117.009 13.5626 116.768 14.0195C116.63 14.2792 116.358 14.436 116.064 14.436H112.346C112.068 14.436 111.915 14.1101 112.083 13.8893C112.829 12.9093 113.423 11.8826 113.864 10.8012C114.568 9.02249 114.919 7.01175 114.919 4.73033V3.29961C114.919 2.56492 115.115 1.9849 115.544 1.52088C115.935 1.1342 116.482 0.902194 117.185 0.902194C117.811 0.902194 118.397 1.1342 118.865 1.52088C119.295 1.9849 119.53 2.56492 119.53 3.29961V4.42099ZM130.587 13.6178C130.587 14.0697 130.221 14.436 129.769 14.436H126.599C126.147 14.436 125.781 14.0697 125.781 13.6178V2.55818C125.781 1.82348 126.015 1.24346 126.484 0.779443C126.914 0.39276 127.461 0.160752 128.164 0.160752C128.79 0.160752 129.376 0.39276 129.884 0.779443C130.352 1.24346 130.587 1.82348 130.587 2.55818V7.47577H133.361C133.947 7.47577 134.416 7.66911 134.806 8.05579C135.158 8.48114 135.353 8.94516 135.353 9.44784C135.353 10.0279 135.158 10.4919 134.806 10.8399C134.416 11.2266 133.947 11.3812 133.361 11.3812H130.587V13.6178ZM100.541 14.1267C100.395 14.2229 100.501 14.436 100.676 14.436L105.292 14.436C105.548 14.436 105.79 14.3166 105.942 14.1106C106.547 13.2906 107.091 12.467 107.574 11.6133C107.965 12.2319 108.355 12.7346 108.746 13.1213C108.824 13.276 108.98 13.392 109.215 13.508C109.41 13.6627 109.645 13.74 109.957 13.7787C110.192 13.856 110.504 13.8173 110.817 13.7013C111.09 13.624 111.364 13.392 111.676 13.044C111.95 12.7346 112.106 12.3866 112.145 12.0386C112.145 11.7605 112.082 11.5137 112.013 11.2419L111.989 11.1492C111.872 10.8786 111.755 10.6079 111.598 10.3759C111.546 10.3137 111.496 10.2571 111.45 10.2046C111.325 10.061 111.226 9.94776 111.168 9.83452C110.7 9.21583 110.387 8.48114 110.153 7.59177C109.879 6.74108 109.762 5.73571 109.762 4.49833V3.49296C109.762 2.75826 109.527 2.17824 109.098 1.71422C108.629 1.32754 108.082 1.09553 107.457 1.09553C106.753 1.09553 106.206 1.32754 105.777 1.71422C105.308 2.17824 105.073 2.75826 105.073 3.49296V4.42099C105.073 6.23839 104.722 7.93979 104.018 9.52518C103.315 11.1492 102.143 12.696 100.541 14.1267ZM138.424 16.4508H138.508C139.423 12.7499 142.764 10.0061 146.745 10.0061H154.956C156.085 10.0061 157 10.9219 157 12.0515C157 13.1812 156.085 14.097 154.956 14.097H147.232V16.4508H154.956C156.085 16.4508 157 17.3665 157 18.4962C157 19.6259 156.085 20.5417 154.956 20.5417H147.232V22.8954H154.956C156.085 22.8954 157 23.8112 157 24.9409C157 26.0706 156.085 26.9863 154.956 26.9863H146.745C142.764 26.9863 139.423 24.2426 138.508 20.5417H138.424H138.324H138.223H138.122H138.019H137.916H137.812H137.707H137.601H137.494H137.387H137.278H137.169H137.059H136.948H136.836H136.724H136.61H136.496H136.381H136.265H136.148H136.031H135.912H135.793H135.673H135.553H135.431H135.309H135.186H135.062H134.937H134.812H134.686H134.559H134.432H134.303H134.174H134.044H133.914H133.783H133.651H133.518H133.385H133.251H133.116H132.98H132.844H132.707H132.57H132.432H132.293H132.153H132.013H131.872H131.73H131.588H131.445H131.302H131.158H131.013H130.867H130.721H130.575H130.427H130.279H130.131H129.982H129.832H129.682H129.531H129.379H129.227H129.075H128.921H128.768H128.613H128.458H128.303H128.147H127.99H127.833H127.676H127.517H127.359H127.199H127.04H126.879H126.719H126.557H126.395H126.233H126.07H125.907H125.743H125.579H125.414H125.249H125.083H124.917H124.751H124.583H124.416H124.248H124.08H123.911H123.742H123.572H123.402H123.231H123.06H122.889H122.717H122.545H122.372H122.199H122.026H121.852H121.678H121.504H121.329H121.154H120.978H120.802H120.626H120.449H120.272H120.095H119.917H119.739H119.561H119.382H119.203H119.024H118.844H118.664H118.484H118.303H118.123H117.942H117.76H117.579H117.397H117.214H117.032H116.849H116.666H116.483H116.3H116.116H115.932H115.748H115.563H115.379H115.194H115.009H114.823H114.638H114.452H114.266H114.08H113.894H113.707H113.521H113.334H113.147H112.96H112.772H112.585H112.397H112.21H112.022H111.833H111.645H111.457H111.268H111.08H110.891H110.702H110.513H110.324H110.135H109.946H109.756H109.567H109.377H109.188H108.998H108.808H108.618H108.429H108.239H108.049H107.859H107.668H107.478H107.288H107.098H106.908H106.717H106.527H106.337H106.147H105.956H105.766H105.576H105.385H105.195H105.005H104.815H104.624H104.434H104.244H104.054H103.864H103.674H103.484H103.294H103.104H102.914H102.724H102.535H102.345H102.156H101.966H101.777H101.588H101.399H101.21H101.021H100.832H100.643H100.455H100.266H100.078H99.8901H99.7021H99.5142H99.3265H99.1389H98.9515H98.7643H98.5772H98.3903H98.2036H98.0171H97.8307H97.6446H97.4586H97.2728H97.0872H96.9019H96.7167H96.5318H96.347H96.1625H95.9783H95.7942H95.6104H95.4269H95.2436H95.0605H94.8777H94.6951H94.5129H94.3308H94.1491H93.9676H93.7865H93.6056H93.425H93.2446H93.0646H92.8849H92.7055H92.5264H92.3477H92.1692H91.9911H91.8133H91.6358H91.4587H91.2819H91.1055H90.9294H90.7537H90.5783H90.4033H90.2287H90.0544H89.8806H89.7071H89.534H89.3613H89.1889H89.017H88.8455H88.6744H88.5037H88.3335H88.1636H87.9942H87.8252H87.6566H87.4885H87.3209H87.1536H86.9869H86.8206H86.6547H86.4893H86.3244H86.16H85.996H85.8326H85.6696H85.5071H85.3451H85.1836H85.0227H84.8622H84.7022H84.5428H84.3839H84.2255H84.0677H83.9104H83.7536H83.5974H83.4417H83.2866H83.132H82.978H82.8246H82.6717H82.5194H82.3678H82.2166H82.0661H81.9162H81.7669H81.6181H81.47H81.3225H81.1756H81.0294H80.8837H80.7387H80.5943H80.4506H80.3075H80.1651H80.0233H79.8821H79.7417H79.6018H79.4627H79.3242H79.1864H79.0493H78.9129H78.7772H78.6421H78.5078H78.3742H78.2413H78.1091H77.9776H77.8468H77.7168H77.5875H77.4589H77.3311H77.204H77.0776H76.9521H76.8272H76.7032H76.5799H76.4574H76.3356H76.2146H76.0944H75.975H75.8564H75.7386H75.6216H75.5054H75.39H75.2755H75.1617H75.0488H74.9367H74.8254H74.715H74.6054H74.4967H74.3888H74.2817H74.1755H74.0702H73.9658H73.8622H73.7595H73.6577H73.5568H73.4567H73.3576H73.2593H73.162H73.0655H72.97H72.8754H72.7817H72.689H72.5971H72.5062H72.4163H72.3273H72.2392H72.1521H72.0659H71.9807H71.8965H71.8132H71.7309H71.6496H71.5693H71.4899H71.4116H71.3342H71.2579H71.1825H71.1082H71.0348H70.9625H70.8912H70.821H70.7517H70.6836H70.6164H70.5503H70.4852H70.4212H70.3583H70.2964H70.2356H70.1758H70.1171H70.0595H70.003H69.9476H69.8933H69.84H69.7879H69.7369H69.687H69.6382H69.5905H69.5439H69.4985H69.4542H69.4111H69.369H69.3282H69.2884H69.2499H69.2125H69.1762H69.1412H69.1073H69.0745H69.043H69.0126H68.9835H68.9555H68.9287H68.9031H68.8788H68.8556H68.8337H68.813H68.7935H68.7752H68.7582H68.7424H68.7278H68.7145H68.7025H68.6917H68.6822H68.6739C67.545 20.5417 66.6298 19.6259 66.6298 18.4962C66.6298 17.3665 67.545 16.4508 68.6739 16.4508H68.6822H68.6917H68.7025H68.7145H68.7278H68.7424H68.7582H68.7752H68.7935H68.813H68.8337H68.8556H68.8788H68.9031H68.9287H68.9555H68.9835H69.0126H69.043H69.0745H69.1073H69.1412H69.1762H69.2125H69.2499H69.2884H69.3282H69.369H69.4111H69.4542H69.4985H69.5439H69.5905H69.6382H69.687H69.7369H69.7879H69.84H69.8933H69.9476H70.003H70.0595H70.1171H70.1758H70.2356H70.2964H70.3583H70.4212H70.4852H70.5503H70.6164H70.6836H70.7517H70.821H70.8912H70.9625H71.0348H71.1082H71.1825H71.2579H71.3342H71.4116H71.4899H71.5693H71.6496H71.7309H71.8132H71.8965H71.9807H72.0659H72.1521H72.2392H72.3273H72.4163H72.5062H72.5971H72.689H72.7817H72.8754H72.97H73.0655H73.162H73.2593H73.3576H73.4567H73.5568H73.6577H73.7595H73.8622H73.9658H74.0702H74.1755H74.2817H74.3888H74.4967H74.6054H74.715H74.8254H74.9367H75.0488H75.1617H75.2755H75.39H75.5054H75.6216H75.7386H75.8564H75.975H76.0944H76.2146H76.3356H76.4574H76.5799H76.7032H76.8272H76.9521H77.0776H77.204H77.3311H77.4589H77.5875H77.7168H77.8468H77.9776H78.1091H78.2413H78.3742H78.5078H78.6421H78.7772H78.9129H79.0493H79.1864H79.3242H79.4627H79.6018H79.7417H79.8821H80.0233H80.1651H80.3075H80.4506H80.5943H80.7387H80.8837H81.0294H81.1756H81.3225H81.47H81.6181H81.7669H81.9162H82.0661H82.2166H82.3678H82.5194H82.6717H82.8246H82.978H83.132H83.2866H83.4417H83.5974H83.7536H83.9104H84.0677H84.2255H84.3839H84.5428H84.7022H84.8622H85.0227H85.1836H85.3451H85.5071H85.6696H85.8326H85.996H86.16H86.3244H86.4893H86.6547H86.8206H86.9869H87.1536H87.3209H87.4885H87.6566H87.8252H87.9942H88.1636H88.3335H88.5037H88.6744H88.8455H89.017H89.1889H89.3613H89.534H89.7071H89.8806H90.0544H90.2287H90.4033H90.5783H90.7537H90.9294H91.1055H91.2819H91.4587H91.6358H91.8133H91.9911H92.1692H92.3477H92.5264H92.7055H92.8849H93.0646H93.2446H93.425H93.6056H93.7865H93.9676H94.1491H94.3308H94.5129H94.6951H94.8777H95.0605H95.2436H95.4269H95.6104H95.7942H95.9783H96.1625H96.347H96.5318H96.7167H96.9019H97.0872H97.2728H97.4586H97.6446H97.8307H98.0171H98.2036H98.3903H98.5772H98.7643H98.9515H99.1389H99.3265H99.5142H99.7021H99.8901H100.078H100.266H100.455H100.643H100.832H101.021H101.21H101.399H101.588H101.777H101.966H102.156H102.345H102.535H102.724H102.914H103.104H103.294H103.484H103.674H103.864H104.054H104.244H104.434H104.624H104.815H105.005H105.195H105.385H105.576H105.766H105.956H106.147H106.337H106.527H106.717H106.908H107.098H107.288H107.478H107.668H107.859H108.049H108.239H108.429H108.618H108.808H108.998H109.188H109.377H109.567H109.756H109.946H110.135H110.324H110.513H110.702H110.891H111.08H111.268H111.457H111.645H111.833H112.022H112.21H112.397H112.585H112.772H112.96H113.147H113.334H113.521H113.707H113.894H114.08H114.266H114.452H114.638H114.823H115.009H115.194H115.379H115.563H115.748H115.932H116.116H116.3H116.483H116.666H116.849H117.032H117.214H117.397H117.579H117.76H117.942H118.123H118.303H118.484H118.664H118.844H119.024H119.203H119.382H119.561H119.739H119.917H120.095H120.272H120.449H120.626H120.802H120.978H121.154H121.329H121.504H121.678H121.852H122.026H122.199H122.372H122.545H122.717H122.889H123.06H123.231H123.402H123.572H123.742H123.911H124.08H124.248H124.416H124.583H124.751H124.917H125.083H125.249H125.414H125.579H125.743H125.907H126.07H126.233H126.395H126.557H126.719H126.879H127.04H127.199H127.359H127.517H127.676H127.833H127.99H128.147H128.303H128.458H128.613H128.768H128.921H129.075H129.227H129.379H129.531H129.682H129.832H129.982H130.131H130.279H130.427H130.575H130.721H130.867H131.013H131.158H131.302H131.445H131.588H131.73H131.872H132.013H132.153H132.293H132.432H132.57H132.707H132.844H132.98H133.116H133.251H133.385H133.518H133.651H133.783H133.914H134.044H134.174H134.303H134.432H134.559H134.686H134.812H134.937H135.062H135.186H135.309H135.431H135.553H135.673H135.793H135.912H136.031H136.148H136.265H136.381H136.496H136.61H136.724H136.836H136.948H137.059H137.169H137.278H137.387H137.494H137.601H137.707H137.812H137.916H138.019H138.122H138.223H138.324H138.424Z" fill="url(#paint0_linear_2_29)"/>
<defs>
<linearGradient id="paint0_linear_2_29" x1="78.5" y1="0" x2="78.5" y2="36" gradientUnits="userSpaceOnUse">
<stop stop-color="#42C1C1"/>
<stop offset="1" stop-color="#42B2C1"/>
</linearGradient>
</defs>
</svg>
